<?xml version="1.0" encoding="UTF-8" standalone="no"?>
<svg width="41px" height="40px" viewBox="0 0 41 40" version="1.1" xmlns="http://www.w3.org/2000/svg" xmlns:xlink="http://www.w3.org/1999/xlink">
    <!-- Generator: Sketch 42 (36781) - http://www.bohemiancoding.com/sketch -->
    <title>github</title>
    <desc>Created with Sketch.</desc>
    <defs></defs>
    <g id="Symbols" stroke="none" stroke-width="1" fill="none" fill-rule="evenodd">
        <g id="footer-mobile" transform="translate(-145.000000, -108.000000)" fill-rule="nonzero" fill="#9012FE">
            <g id="github" transform="translate(145.500000, 108.000000)">
                <path d="M20,0.0769230769 C8.96774194,0.0769230769 0.0107526882,9.21978022 0.0107526882,20.5054945 C0.0107526882,29.5274725 5.74193548,37.1868132 13.6774194,39.8901099 C14.6774194,40.0769231 15,39.4505495 15,38.9120879 L15,35.0989011 C9.44086022,36.3406593 8.27956989,32.6923077 8.27956989,32.6923077 C7.37634409,30.3296703 6.06451613,29.7032967 6.06451613,29.7032967 C4.24731183,28.4395604 6.20430108,28.4615385 6.20430108,28.4615385 C8.21505376,28.6043956 9.2688172,30.5714286 9.2688172,30.5714286 C11.0537634,33.6923077 13.9462366,32.7912088 15.0860215,32.2637363 C15.2688172,30.9450549 15.7849462,30.043956 16.3548387,29.5274725 C11.9139785,29.010989 7.24731183,27.2637363 7.24731183,19.4285714 C7.24731183,17.1978022 8.03225806,15.3736264 9.31182796,13.9450549 C9.10752688,13.4285714 8.41935484,11.3516484 9.50537634,8.53846154 C9.50537634,8.53846154 11.1827957,7.98901099 15,10.6373626 C16.5913978,10.1868132 18.3010753,9.95604396 20,9.94505495 C21.6989247,9.95604396 23.4086022,10.1758242 25.0107527,10.6373626 C28.827957,8 30.5053763,8.53846154 30.5053763,8.53846154 C31.5913978,11.3516484 30.9139785,13.4285714 30.6989247,13.9450549 C31.9784946,15.3736264 32.7526882,17.1978022 32.7526882,19.4285714 C32.7526882,27.2747253 28.0752688,29 23.6236559,29.5054945 C24.344086,30.1428571 25,31.3846154 25,33.2857143 L25,38.8901099 C25,39.4285714 25.3225806,40.0659341 26.3333333,39.8681319 C34.2688172,37.1648352 39.9892473,29.5054945 39.9892473,20.4835165 C39.9892473,9.21978022 31.0322581,0.0769230769 20,0.0769230769 Z" id="Shape"></path>
            </g>
        </g>
    </g>
</svg>