<?xml version="1.0" encoding="UTF-8" standalone="no"?>
<svg width="40px" height="40px" viewBox="0 0 40 40" version="1.1" xmlns="http://www.w3.org/2000/svg" xmlns:xlink="http://www.w3.org/1999/xlink">
    <!-- Generator: Sketch 42 (36781) - http://www.bohemiancoding.com/sketch -->
    <title>linkedin</title>
    <desc>Created with Sketch.</desc>
    <defs></defs>
    <g id="Symbols" stroke="none" stroke-width="1" fill="none" fill-rule="evenodd">
        <g id="footer-mobile" transform="translate(-218.000000, -108.000000)" fill-rule="nonzero" fill="#9012FE">
            <g id="linkedin" transform="translate(218.000000, 108.000000)">
                <path d="M9.77142857,4.89361702 C9.77142857,7.58865248 7.58571429,9.78723404 4.88571429,9.78723404 C2.18571429,9.78723404 0,7.60283688 0,4.89361702 C0,2.19858156 2.18571429,0 4.88571429,0 C7.58571429,0 9.77142857,2.19858156 9.77142857,4.89361702 Z M9.05714286,13.248227 L0.8,13.248227 L0.8,39.7446809 L9.05714286,39.7446809 L9.05714286,13.248227 Z M22.2571429,13.248227 L14.3428571,13.248227 L14.3428571,39.7446809 L22.2571429,39.7446809 L22.2571429,25.8439716 C22.2571429,22.1134752 23.9857143,19.9007092 27.2857143,19.9007092 C30.3285714,19.9007092 31.7857143,22.0283688 31.7857143,25.8439716 L31.7857143,39.7446809 L40,39.7446809 L40,22.964539 C40,15.8723404 35.9571429,12.4397163 30.2857143,12.4397163 C24.6285714,12.4397163 22.2428571,16.822695 22.2428571,16.822695 L22.2428571,13.248227 L22.2571429,13.248227 L22.2571429,13.248227 Z" id="Shape"></path>
            </g>
        </g>
    </g>
</svg>