<?xml version="1.0" encoding="UTF-8" standalone="no"?>
<svg width="50px" height="40px" viewBox="0 0 50 40" version="1.1" xmlns="http://www.w3.org/2000/svg" xmlns:xlink="http://www.w3.org/1999/xlink">
    <!-- Generator: Sketch 42 (36781) - http://www.bohemiancoding.com/sketch -->
    <title>twitter</title>
    <desc>Created with Sketch.</desc>
    <defs></defs>
    <g id="Symbols" stroke="none" stroke-width="1" fill="none" fill-rule="evenodd">
        <g id="footer-mobile" transform="translate(-63.000000, -108.000000)" fill-rule="nonzero" fill="#9012FE">
            <g id="twitter" transform="translate(63.000000, 108.000000)">
                <path d="M49.2403101,4.74418605 C47.4263566,5.5503876 45.4883721,6.09302326 43.4418605,6.3255814 C45.5193798,5.06976744 47.1317829,3.10077519 47.875969,0.744186047 C45.9224806,1.90697674 43.7674419,2.74418605 41.4728682,3.19379845 C39.627907,1.24031008 37.0077519,0 34.1085271,0 C27.5968992,0 22.8062016,6.07751938 24.2790698,12.3875969 C15.8914729,11.9689922 8.4496124,7.95348837 3.47286822,1.84496124 C0.837209302,6.37209302 2.10852713,12.3100775 6.58914729,15.3178295 C4.93023256,15.2713178 3.37984496,14.8062016 2.01550388,14.0620155 C1.90697674,18.744186 5.25581395,23.1162791 10.1085271,24.0775194 C8.68217054,24.4651163 7.13178295,24.5581395 5.5503876,24.248062 C6.8372093,28.2635659 10.5581395,31.1782946 14.9767442,31.255814 C10.7286822,34.5736434 5.39534884,36.0620155 0.0310077519,35.4418605 C4.49612403,38.3100775 9.79844961,39.9689922 15.503876,39.9689922 C34.2325581,39.9689922 44.8217054,24.1395349 44.1860465,9.95348837 C46.1860465,8.54263566 47.8914729,6.7751938 49.2403101,4.74418605 Z" id="Shape"></path>
            </g>
        </g>
    </g>
</svg>