<?xml version="1.0" encoding="UTF-8"?>
<svg width="879px" height="631px" viewBox="0 0 879 631" version="1.1" xmlns="http://www.w3.org/2000/svg" xmlns:xlink="http://www.w3.org/1999/xlink">
    <!-- Generator: Sketch 54.1 (76490) - https://sketchapp.com -->
    <title>Group 2</title>
    <desc>Created with Sketch.</desc>
    <g id="Page-1" stroke="none" stroke-width="1" fill="none" fill-rule="evenodd">
        <g id="Abstract-World-Map" transform="translate(-133.000000, -43.000000)">
            <g id="Group-2" transform="translate(101.000000, 41.000000)">
                <g id="Group" transform="translate(30.000000, 0.000000)">
                    <rect id="Rectangle" fill="#34A853" transform="translate(211.000000, 160.500000) rotate(20.000000) translate(-211.000000, -160.500000) " x="24" y="58" width="374" height="205" rx="8"></rect>
                    <text id="sort" transform="translate(212.612341, 153.368242) rotate(20.000000) translate(-212.612341, -153.368242) " font-family="Roboto-Regular, Roboto" font-size="70" font-weight="normal" fill="#FFFFFF">
                        <tspan x="150.473669" y="177.368242">sort</tspan>
                    </text>
                </g>
                <g id="Group" transform="translate(709.664968, 490.701410) rotate(-10.000000) translate(-709.664968, -490.701410) translate(498.664968, 330.201410)">
                    <rect id="Rectangle" fill="#EA4335" transform="translate(211.000000, 160.500000) rotate(20.000000) translate(-211.000000, -160.500000) " x="24" y="58" width="374" height="205" rx="8"></rect>
                    <text id="cards" transform="translate(212.612341, 153.368242) rotate(20.000000) translate(-212.612341, -153.368242) " font-family="Roboto-Regular, Roboto" font-size="70" font-weight="normal" fill="#FFFFFF">
                        <tspan x="125.949743" y="177.368242">cards</tspan>
                    </text>
                </g>
                <g id="Group" transform="translate(541.169376, 267.986916) rotate(-20.000000) translate(-541.169376, -267.986916) translate(330.169376, 107.486916)">
                    <rect id="Rectangle" fill="#4285F4" transform="translate(211.000000, 160.500000) rotate(20.000000) translate(-211.000000, -160.500000) " x="24" y="58" width="374" height="205" rx="8"></rect>
                    <text id="all" transform="translate(212.612341, 153.368242) rotate(20.000000) translate(-212.612341, -153.368242) " font-family="Roboto-Regular, Roboto" font-size="70" font-weight="normal" fill="#FFFFFF">
                        <tspan x="176.58695" y="177.368242">all</tspan>
                    </text>
                </g>
                <g id="Group" transform="translate(264.802789, 474.578319) rotate(-40.000000) translate(-264.802789, -474.578319) translate(53.802789, 314.078319)">
                    <rect id="Rectangle" fill="#FBBC05" transform="translate(211.000000, 160.500000) rotate(20.000000) translate(-211.000000, -160.500000) " x="24" y="58" width="374" height="205" rx="8"></rect>
                    <text id="the" transform="translate(212.612341, 153.368242) rotate(20.000000) translate(-212.612341, -153.368242) " font-family="Roboto-Regular, Roboto" font-size="70" font-weight="normal" fill="#FFFFFF">
                        <tspan x="163.359411" y="177.368242">the</tspan>
                    </text>
                </g>
            </g>
        </g>
    </g>
</svg>