<?xml version="1.0" encoding="UTF-8"?>
<svg width="1149px" height="487px" viewBox="0 0 1149 487" version="1.1" xmlns="http://www.w3.org/2000/svg" xmlns:xlink="http://www.w3.org/1999/xlink">
    <!-- Generator: Sketch 54.1 (76490) - https://sketchapp.com -->
    <title>Group 5</title>
    <desc>Created with Sketch.</desc>
    <g id="Page-1" stroke="none" stroke-width="1" fill="none" fill-rule="evenodd">
        <g id="Group-5" transform="translate(0.000000, 1.000000)">
            <g id="Blue-Outline-Mockup" stroke="#5282F0">
                <g id="Group-4">
                    <g id="Group" transform="translate(0.289786, 0.000000)">
                        <path d="M4.28151961,65.1917736 L4.28151961,124.180059 L3.22151038,124.180059 C2.11694088,124.180059 1.22151038,125.075489 1.22151038,126.180059 L1.22151038,152.679728 C1.22151038,153.784298 2.11694088,154.679728 3.22151038,154.679728 L4.28151961,154.679728 L4.28151961,166.21672 L3.22151038,166.21672 C2.11694088,166.21672 1.22151038,167.112151 1.22151038,168.21672 L1.22151038,240.510276 C1.22151038,241.614846 2.11694088,242.510276 3.22151038,242.510276 L4.28151961,242.510276 L4.28151961,420.939769 C4.28151961,456.285993 32.9352956,484.939769 68.2815196,484.939769 L178.224512,484.939769 C213.570736,484.939769 242.224512,456.285993 242.224512,420.939769 L242.224512,65.1917736 C242.224512,29.8455496 213.570736,1.19177357 178.224512,1.19177357 L68.2815196,1.19177357 C32.9352956,1.19177357 4.28151961,29.8455496 4.28151961,65.1917736 Z" id="Body" stroke-width="2"></path>
                        <path d="M18.7525634,57.8495422 L18.7525634,429.310362 L227.731168,429.310362 L227.731168,57.8495422 L18.7525634,57.8495422 Z" id="Screen-Area" stroke-width="2"></path>
                        <path d="M73.7763074,8.73115305 C38.4300834,8.73115305 9.77630737,37.3849291 9.77630737,72.731153 L9.77630737,413.087304 C9.77630737,448.433528 38.4300834,477.087304 73.7763074,477.087304 L172.707424,477.087304 C208.053648,477.087304 236.707424,448.433528 236.707424,413.087304 L236.707424,72.731153 C236.707424,37.3849291 208.053648,8.73115305 172.707424,8.73115305 L73.7763074,8.73115305 Z" id="Rectangle-6-Copy" stroke-width="2"></path>
                        <path d="M100.410284,442.657687 C94.5485326,442.657687 89.796644,447.409575 89.796644,453.271327 C89.796644,459.133079 94.5485326,463.884967 100.410284,463.884967 L146.81921,463.884967 C152.680961,463.884967 157.43285,459.133079 157.43285,453.271327 C157.43285,447.409575 152.680961,442.657687 146.81921,442.657687 L100.410284,442.657687 Z" id="Home-Button" stroke-width="2"></path>
                        <g id="Group-31" transform="translate(45.952039, 1.159905)" stroke-linecap="square" stroke-width="3">
                            <g id="Group-28">
                                <path d="M0.86935867,6.38614102 L0.86935867,0.0757899736" id="Line"></path>
                            </g>
                            <path d="M154.340791,6.38614102 L154.340791,0.0757899736" id="Line-Copy-4"></path>
                        </g>
                        <g id="Group-31-Copy" transform="translate(45.952039, 478.087304)" stroke-linecap="square" stroke-width="3">
                            <g id="Group-28">
                                <path d="M0.86935867,6.38614102 L0.86935867,0.0757899736" id="Line"></path>
                            </g>
                            <path d="M154.340791,6.38614102 L154.340791,0.0757899736" id="Line-Copy-4"></path>
                        </g>
                        <g id="Mic-and-camera" transform="translate(80.865086, 30.737470)" stroke-width="2">
                            <ellipse id="Oval-9" cx="3.9344353" cy="4.34377614" rx="3.47743468" ry="3.4797136"></ellipse>
                            <path d="M25.0053717,1.05011544 C23.2043863,1.05011544 21.7443992,2.51010254 21.7443992,4.31108791 C21.7443992,6.11207327 23.2043863,7.57206037 25.0053717,7.57206037 L60.493951,7.57206037 C62.2949363,7.57206037 63.7549234,6.11207327 63.7549234,4.31108791 C63.7549234,2.51010254 62.2949363,1.05011544 60.493951,1.05011544 L25.0053717,1.05011544 Z" id="Rectangle-8"></path>
                        </g>
                    </g>
                </g>
            </g>
            <text id="00:00" font-family="Roboto-Medium, Roboto" font-size="50" font-weight="400" fill="#6D7278">
                <tspan x="58.0356445" y="160">00:00</tspan>
            </text>
            <g id="Group" transform="translate(42.000000, 186.000000)">
                <g id="Group-3">
                    <rect id="Rectangle" fill="#34A853" x="0" y="0" width="160" height="48" rx="8"></rect>
                    <text id="start-travel" font-family="Roboto-Regular, Roboto" font-size="25" font-weight="normal" fill="#FFFFFF">
                        <tspan x="21.0517578" y="33">start travel</tspan>
                    </text>
                </g>
            </g>
            <g id="Group" transform="translate(42.000000, 186.000000)">
                <g id="Group-3">
                    <rect id="Rectangle" fill="#34A853" x="0" y="0" width="160" height="48" rx="8"></rect>
                    <text id="start-travel" font-family="Roboto-Regular, Roboto" font-size="25" font-weight="normal" fill="#FFFFFF">
                        <tspan x="21.0517578" y="33">start travel</tspan>
                    </text>
                </g>
            </g>
            <g id="Blue-Outline-Mockup" transform="translate(302.000000, 0.000000)" stroke="#5282F0">
                <g id="Group-4">
                    <g id="Group" transform="translate(0.289786, 0.000000)">
                        <path d="M4.28151961,65.1917736 L4.28151961,124.180059 L3.22151038,124.180059 C2.11694088,124.180059 1.22151038,125.075489 1.22151038,126.180059 L1.22151038,152.679728 C1.22151038,153.784298 2.11694088,154.679728 3.22151038,154.679728 L4.28151961,154.679728 L4.28151961,166.21672 L3.22151038,166.21672 C2.11694088,166.21672 1.22151038,167.112151 1.22151038,168.21672 L1.22151038,240.510276 C1.22151038,241.614846 2.11694088,242.510276 3.22151038,242.510276 L4.28151961,242.510276 L4.28151961,420.939769 C4.28151961,456.285993 32.9352956,484.939769 68.2815196,484.939769 L178.224512,484.939769 C213.570736,484.939769 242.224512,456.285993 242.224512,420.939769 L242.224512,65.1917736 C242.224512,29.8455496 213.570736,1.19177357 178.224512,1.19177357 L68.2815196,1.19177357 C32.9352956,1.19177357 4.28151961,29.8455496 4.28151961,65.1917736 Z" id="Body" stroke-width="2"></path>
                        <path d="M18.7525634,57.8495422 L18.7525634,429.310362 L227.731168,429.310362 L227.731168,57.8495422 L18.7525634,57.8495422 Z" id="Screen-Area" stroke-width="2"></path>
                        <path d="M73.7763074,8.73115305 C38.4300834,8.73115305 9.77630737,37.3849291 9.77630737,72.731153 L9.77630737,413.087304 C9.77630737,448.433528 38.4300834,477.087304 73.7763074,477.087304 L172.707424,477.087304 C208.053648,477.087304 236.707424,448.433528 236.707424,413.087304 L236.707424,72.731153 C236.707424,37.3849291 208.053648,8.73115305 172.707424,8.73115305 L73.7763074,8.73115305 Z" id="Rectangle-6-Copy" stroke-width="2"></path>
                        <path d="M100.410284,442.657687 C94.5485326,442.657687 89.796644,447.409575 89.796644,453.271327 C89.796644,459.133079 94.5485326,463.884967 100.410284,463.884967 L146.81921,463.884967 C152.680961,463.884967 157.43285,459.133079 157.43285,453.271327 C157.43285,447.409575 152.680961,442.657687 146.81921,442.657687 L100.410284,442.657687 Z" id="Home-Button" stroke-width="2"></path>
                        <g id="Group-31" transform="translate(45.952039, 1.159905)" stroke-linecap="square" stroke-width="3">
                            <g id="Group-28">
                                <path d="M0.86935867,6.38614102 L0.86935867,0.0757899736" id="Line"></path>
                            </g>
                            <path d="M154.340791,6.38614102 L154.340791,0.0757899736" id="Line-Copy-4"></path>
                        </g>
                        <g id="Group-31-Copy" transform="translate(45.952039, 478.087304)" stroke-linecap="square" stroke-width="3">
                            <g id="Group-28">
                                <path d="M0.86935867,6.38614102 L0.86935867,0.0757899736" id="Line"></path>
                            </g>
                            <path d="M154.340791,6.38614102 L154.340791,0.0757899736" id="Line-Copy-4"></path>
                        </g>
                        <g id="Mic-and-camera" transform="translate(80.865086, 30.737470)" stroke-width="2">
                            <ellipse id="Oval-9" cx="3.9344353" cy="4.34377614" rx="3.47743468" ry="3.4797136"></ellipse>
                            <path d="M25.0053717,1.05011544 C23.2043863,1.05011544 21.7443992,2.51010254 21.7443992,4.31108791 C21.7443992,6.11207327 23.2043863,7.57206037 25.0053717,7.57206037 L60.493951,7.57206037 C62.2949363,7.57206037 63.7549234,6.11207327 63.7549234,4.31108791 C63.7549234,2.51010254 62.2949363,1.05011544 60.493951,1.05011544 L25.0053717,1.05011544 Z" id="Rectangle-8"></path>
                        </g>
                    </g>
                </g>
            </g>
            <text id="00:00" font-family="Roboto-Medium, Roboto" font-size="50" font-weight="400" fill="#6D7278">
                <tspan x="362.035645" y="160">00:00</tspan>
            </text>
            <text id="00:00" font-family="Roboto-Medium, Roboto" font-size="50" font-weight="400" fill="#6D7278">
                <tspan x="662.035645" y="160">00:00</tspan>
            </text>
            <text id="00:00" font-family="Roboto-Medium, Roboto" font-size="50" font-weight="400" fill="#6D7278">
                <tspan x="662.035645" y="160">00:00</tspan>
            </text>
            <g id="Blue-Outline-Mockup" transform="translate(603.000000, 0.000000)" stroke="#5282F0">
                <g id="Group-4">
                    <g id="Group" transform="translate(0.289786, 0.000000)">
                        <path d="M4.28151961,65.1917736 L4.28151961,124.180059 L3.22151038,124.180059 C2.11694088,124.180059 1.22151038,125.075489 1.22151038,126.180059 L1.22151038,152.679728 C1.22151038,153.784298 2.11694088,154.679728 3.22151038,154.679728 L4.28151961,154.679728 L4.28151961,166.21672 L3.22151038,166.21672 C2.11694088,166.21672 1.22151038,167.112151 1.22151038,168.21672 L1.22151038,240.510276 C1.22151038,241.614846 2.11694088,242.510276 3.22151038,242.510276 L4.28151961,242.510276 L4.28151961,420.939769 C4.28151961,456.285993 32.9352956,484.939769 68.2815196,484.939769 L178.224512,484.939769 C213.570736,484.939769 242.224512,456.285993 242.224512,420.939769 L242.224512,65.1917736 C242.224512,29.8455496 213.570736,1.19177357 178.224512,1.19177357 L68.2815196,1.19177357 C32.9352956,1.19177357 4.28151961,29.8455496 4.28151961,65.1917736 Z" id="Body" stroke-width="2"></path>
                        <path d="M18.7525634,57.8495422 L18.7525634,429.310362 L227.731168,429.310362 L227.731168,57.8495422 L18.7525634,57.8495422 Z" id="Screen-Area" stroke-width="2"></path>
                        <path d="M73.7763074,8.73115305 C38.4300834,8.73115305 9.77630737,37.3849291 9.77630737,72.731153 L9.77630737,413.087304 C9.77630737,448.433528 38.4300834,477.087304 73.7763074,477.087304 L172.707424,477.087304 C208.053648,477.087304 236.707424,448.433528 236.707424,413.087304 L236.707424,72.731153 C236.707424,37.3849291 208.053648,8.73115305 172.707424,8.73115305 L73.7763074,8.73115305 Z" id="Rectangle-6-Copy" stroke-width="2"></path>
                        <path d="M100.410284,442.657687 C94.5485326,442.657687 89.796644,447.409575 89.796644,453.271327 C89.796644,459.133079 94.5485326,463.884967 100.410284,463.884967 L146.81921,463.884967 C152.680961,463.884967 157.43285,459.133079 157.43285,453.271327 C157.43285,447.409575 152.680961,442.657687 146.81921,442.657687 L100.410284,442.657687 Z" id="Home-Button" stroke-width="2"></path>
                        <g id="Group-31" transform="translate(45.952039, 1.159905)" stroke-linecap="square" stroke-width="3">
                            <g id="Group-28">
                                <path d="M0.86935867,6.38614102 L0.86935867,0.0757899736" id="Line"></path>
                            </g>
                            <path d="M154.340791,6.38614102 L154.340791,0.0757899736" id="Line-Copy-4"></path>
                        </g>
                        <g id="Group-31-Copy" transform="translate(45.952039, 478.087304)" stroke-linecap="square" stroke-width="3">
                            <g id="Group-28">
                                <path d="M0.86935867,6.38614102 L0.86935867,0.0757899736" id="Line"></path>
                            </g>
                            <path d="M154.340791,6.38614102 L154.340791,0.0757899736" id="Line-Copy-4"></path>
                        </g>
                        <g id="Mic-and-camera" transform="translate(80.865086, 30.737470)" stroke-width="2">
                            <ellipse id="Oval-9" cx="3.9344353" cy="4.34377614" rx="3.47743468" ry="3.4797136"></ellipse>
                            <path d="M25.0053717,1.05011544 C23.2043863,1.05011544 21.7443992,2.51010254 21.7443992,4.31108791 C21.7443992,6.11207327 23.2043863,7.57206037 25.0053717,7.57206037 L60.493951,7.57206037 C62.2949363,7.57206037 63.7549234,6.11207327 63.7549234,4.31108791 C63.7549234,2.51010254 62.2949363,1.05011544 60.493951,1.05011544 L25.0053717,1.05011544 Z" id="Rectangle-8"></path>
                        </g>
                    </g>
                </g>
            </g>
            <g id="Blue-Outline-Mockup" transform="translate(905.000000, 0.000000)" stroke="#5282F0">
                <g id="Group-4">
                    <g id="Group" transform="translate(0.289786, 0.000000)">
                        <path d="M4.28151961,65.1917736 L4.28151961,124.180059 L3.22151038,124.180059 C2.11694088,124.180059 1.22151038,125.075489 1.22151038,126.180059 L1.22151038,152.679728 C1.22151038,153.784298 2.11694088,154.679728 3.22151038,154.679728 L4.28151961,154.679728 L4.28151961,166.21672 L3.22151038,166.21672 C2.11694088,166.21672 1.22151038,167.112151 1.22151038,168.21672 L1.22151038,240.510276 C1.22151038,241.614846 2.11694088,242.510276 3.22151038,242.510276 L4.28151961,242.510276 L4.28151961,420.939769 C4.28151961,456.285993 32.9352956,484.939769 68.2815196,484.939769 L178.224512,484.939769 C213.570736,484.939769 242.224512,456.285993 242.224512,420.939769 L242.224512,65.1917736 C242.224512,29.8455496 213.570736,1.19177357 178.224512,1.19177357 L68.2815196,1.19177357 C32.9352956,1.19177357 4.28151961,29.8455496 4.28151961,65.1917736 Z" id="Body" stroke-width="2"></path>
                        <path d="M18.7525634,57.8495422 L18.7525634,429.310362 L227.731168,429.310362 L227.731168,57.8495422 L18.7525634,57.8495422 Z" id="Screen-Area" stroke-width="2"></path>
                        <path d="M73.7763074,8.73115305 C38.4300834,8.73115305 9.77630737,37.3849291 9.77630737,72.731153 L9.77630737,413.087304 C9.77630737,448.433528 38.4300834,477.087304 73.7763074,477.087304 L172.707424,477.087304 C208.053648,477.087304 236.707424,448.433528 236.707424,413.087304 L236.707424,72.731153 C236.707424,37.3849291 208.053648,8.73115305 172.707424,8.73115305 L73.7763074,8.73115305 Z" id="Rectangle-6-Copy" stroke-width="2"></path>
                        <path d="M100.410284,442.657687 C94.5485326,442.657687 89.796644,447.409575 89.796644,453.271327 C89.796644,459.133079 94.5485326,463.884967 100.410284,463.884967 L146.81921,463.884967 C152.680961,463.884967 157.43285,459.133079 157.43285,453.271327 C157.43285,447.409575 152.680961,442.657687 146.81921,442.657687 L100.410284,442.657687 Z" id="Home-Button" stroke-width="2"></path>
                        <g id="Group-31" transform="translate(45.952039, 1.159905)" stroke-linecap="square" stroke-width="3">
                            <g id="Group-28">
                                <path d="M0.86935867,6.38614102 L0.86935867,0.0757899736" id="Line"></path>
                            </g>
                            <path d="M154.340791,6.38614102 L154.340791,0.0757899736" id="Line-Copy-4"></path>
                        </g>
                        <g id="Group-31-Copy" transform="translate(45.952039, 478.087304)" stroke-linecap="square" stroke-width="3">
                            <g id="Group-28">
                                <path d="M0.86935867,6.38614102 L0.86935867,0.0757899736" id="Line"></path>
                            </g>
                            <path d="M154.340791,6.38614102 L154.340791,0.0757899736" id="Line-Copy-4"></path>
                        </g>
                        <g id="Mic-and-camera" transform="translate(80.865086, 30.737470)" stroke-width="2">
                            <ellipse id="Oval-9" cx="3.9344353" cy="4.34377614" rx="3.47743468" ry="3.4797136"></ellipse>
                            <path d="M25.0053717,1.05011544 C23.2043863,1.05011544 21.7443992,2.51010254 21.7443992,4.31108791 C21.7443992,6.11207327 23.2043863,7.57206037 25.0053717,7.57206037 L60.493951,7.57206037 C62.2949363,7.57206037 63.7549234,6.11207327 63.7549234,4.31108791 C63.7549234,2.51010254 62.2949363,1.05011544 60.493951,1.05011544 L25.0053717,1.05011544 Z" id="Rectangle-8"></path>
                        </g>
                    </g>
                </g>
            </g>
            <text id="00:00" font-family="Roboto-Medium, Roboto" font-size="50" font-weight="400" fill="#6D7278">
                <tspan x="964.035645" y="160">00:00</tspan>
            </text>
            <g id="Group" transform="translate(345.000000, 186.000000)">
                <g id="Group-3">
                    <rect id="Rectangle" fill="#FBBC05" x="0" y="0" width="160" height="48" rx="8"></rect>
                    <text id="end-travel" font-family="Roboto-Regular, Roboto" font-size="25" font-weight="normal" fill="#FFFFFF">
                        <tspan x="26.4289551" y="33">end travel</tspan>
                    </text>
                </g>
            </g>
            <g id="Group" transform="translate(645.000000, 186.000000)">
                <g id="Group-3">
                    <rect id="Rectangle" fill="#34A853" x="0" y="0" width="160" height="48" rx="8"></rect>
                    <text id="start-work" font-family="Roboto-Regular, Roboto" font-size="25" font-weight="normal" fill="#FFFFFF">
                        <tspan x="24.3720703" y="33">start work</tspan>
                    </text>
                </g>
            </g>
            <g id="Group" transform="translate(948.000000, 186.000000)">
                <g id="Group-3">
                    <rect id="Rectangle" fill="#FBBC05" x="0" y="0" width="160" height="48" rx="8"></rect>
                    <text id="end-work" font-family="Roboto-Regular, Roboto" font-size="25" font-weight="normal" fill="#FFFFFF">
                        <tspan x="29.7492676" y="33">end work</tspan>
                    </text>
                </g>
            </g>
        </g>
    </g>
</svg>