<svg xmlns="http://www.w3.org/2000/svg" xmlns:xlink="http://www.w3.org/1999/xlink" viewBox="0 0 1339.8 838.65"><defs><style>.cls-1,.cls-10,.cls-12,.cls-16{fill:none;}.cls-2{clip-path:url(#clip-path);}.cls-3{clip-path:url(#clip-path-2);}.cls-4{fill:#fff;}.cls-5{fill:#d5a6bd;}.cls-6{font-size:10px;}.cls-15,.cls-6,.cls-9{font-family:ArialMT, Arial;}.cls-7{fill:#ffe599;}.cls-8{opacity:0;}.cls-13,.cls-9{font-size:14px;}.cls-10,.cls-12,.cls-16{stroke:#000;}.cls-10,.cls-16{stroke-linejoin:round;}.cls-10,.cls-12{stroke-width:3px;}.cls-11{fill-rule:evenodd;}.cls-12{stroke-miterlimit:11.47;}.cls-13{fill:#741b47;}.cls-13,.cls-14{font-family:Arial-BoldMT, Arial;font-weight:700;}.cls-14{font-size:30px;}.cls-15{font-size:24px;}.cls-16{stroke-width:0.75px;}</style><clipPath id="clip-path"><rect class="cls-1" width="1339" height="838"/></clipPath><clipPath id="clip-path-2"><rect class="cls-1" width="1339.8" height="838.65"/></clipPath></defs><title>Asset 1</title><g id="Layer_2" data-name="Layer 2"><g id="Layer_1-2" data-name="Layer 1"><g class="cls-2"><g class="cls-3"><rect class="cls-4" width="1339.8" height="838.65"/><path class="cls-5" d="M143.57,216.28h0a20.34,20.34,0,0,1,20.34-20.34h81.34a20.33,20.33,0,0,1,20.34,20.34v87.83a20.34,20.34,0,0,1-20.34,20.34H163.9a20.34,20.34,0,0,1-20.34-20.34Z"/><text class="cls-6" transform="translate(156.27 215.8)">Clara, a junior at </text><text class="cls-6" transform="translate(156.27 227.8)">Northeastern </text><text class="cls-6" transform="translate(156.27 239.8)">University, has just </text><text class="cls-6" transform="translate(156.27 251.8)">sat down in class. </text><text class="cls-6" transform="translate(156.27 263.8)">She downloads the </text><text class="cls-6" transform="translate(156.27 275.8)">WaitWhat app, as her </text><text class="cls-6" transform="translate(156.27 287.8)">professor has </text><text class="cls-6" transform="translate(156.27 299.8)">instructed her to do </text><text class="cls-6" transform="translate(156.27 311.8)"><tspan xml:space="preserve">so.  </tspan></text><path class="cls-5" d="M1018.54,216.28h0a20.34,20.34,0,0,1,20.34-20.34h81.34a20.33,20.33,0,0,1,20.33,20.34v87.83a20.33,20.33,0,0,1-20.33,20.34h-81.34a20.34,20.34,0,0,1-20.34-20.34Z"/><text class="cls-6" transform="translate(1031.25 233.8)">At the end of the </text><text class="cls-6" transform="translate(1031.25 245.8)">lecture, Clara is </text><text class="cls-6" transform="translate(1031.25 257.8)">prompted for a rating </text><text class="cls-6" transform="translate(1031.25 269.8)">of one to five stars. </text><text class="cls-6" transform="translate(1031.25 281.8)">She selects 4 stars </text><text class="cls-6" transform="translate(1031.25 293.8)">and closes the app. </text><path class="cls-5" d="M726.88,216.28h0a20.34,20.34,0,0,1,20.34-20.34h81.34a20.34,20.34,0,0,1,20.34,20.34v87.83a20.34,20.34,0,0,1-20.34,20.34H747.22a20.34,20.34,0,0,1-20.34-20.34Z"/><text class="cls-6" transform="translate(739.59 215.8)">Fifteen minutes into </text><text class="cls-6" transform="translate(739.59 227.8)">class, Clara finds her </text><text class="cls-6" transform="translate(739.59 239.8)">mind drifting. She is </text><text class="cls-6" transform="translate(739.59 251.8)">having trouble paying </text><text class="cls-6" transform="translate(739.59 263.8)">attention. She </text><text class="cls-6" transform="translate(739.59 275.8)">presses the sleepy </text><text class="cls-6" transform="translate(739.59 287.8)">face icon on the </text><text class="cls-6" transform="translate(739.59 299.8)">WaitWhat app on her </text><text class="cls-6" transform="translate(739.59 311.8)">phone </text><path class="cls-5" d="M581.06,216.28h0a20.34,20.34,0,0,1,20.34-20.34h81.34a20.34,20.34,0,0,1,20.34,20.34v87.83a20.34,20.34,0,0,1-20.34,20.34H601.39a20.34,20.34,0,0,1-20.34-20.34Z"/><text class="cls-6" transform="translate(593.76 215.8)">A notification pops up </text><text class="cls-6" transform="translate(593.76 227.8)">on her app that the </text><text class="cls-6" transform="translate(593.76 239.8)">lecture has started. A </text><text class="cls-6" transform="translate(593.76 251.8)">timer appears along </text><text class="cls-6" transform="translate(593.76 263.8)">with three icons: </text><text class="cls-6" transform="translate(593.76 275.8)">smile face(ok), </text><text class="cls-6" transform="translate(593.76 287.8)">question </text><text class="cls-6" transform="translate(593.76 299.8)">mark(confused), and </text><text class="cls-6" transform="translate(593.76 311.8)">sleepy face (bored)</text><path class="cls-7" d="M581.06,682.62h0a20.34,20.34,0,0,1,20.34-20.34h81.34a20.34,20.34,0,0,1,20.34,20.34v87.83a20.34,20.34,0,0,1-20.34,20.34H601.39a20.34,20.34,0,0,1-20.34-20.34Z"/><text class="cls-6" transform="translate(593.76 688.13)">Daryl, who has </text><text class="cls-6" transform="translate(593.76 700.13)">already used </text><text class="cls-6" transform="translate(593.76 712.13)">WaitWhat for another </text><text class="cls-6" transform="translate(593.76 724.13)">class, opens the app </text><text class="cls-6" transform="translate(593.76 736.13)">on his phone and </text><text class="cls-6" transform="translate(593.76 748.13)">enters the access </text><text class="cls-6" transform="translate(593.76 760.13)">code the professor </text><text class="cls-6" transform="translate(593.76 772.13)">has written the board</text><path class="cls-5" d="M289.4,216.28h0a20.34,20.34,0,0,1,20.34-20.34h81.34a20.34,20.34,0,0,1,20.34,20.34v87.83a20.34,20.34,0,0,1-20.34,20.34H309.73a20.34,20.34,0,0,1-20.34-20.34Z"/><text class="cls-6" transform="translate(302.1 221.8)">After providing an </text><text class="cls-6" transform="translate(302.1 233.8)">email and password </text><text class="cls-6" transform="translate(302.1 245.8)">she is taken to her </text><text class="cls-6" transform="translate(302.1 257.8)">dashboard. She </text><text class="cls-6" transform="translate(302.1 269.8)">presses the plus icon </text><text class="cls-6" transform="translate(302.1 281.8)">next to “classes”. She </text><text class="cls-6" transform="translate(302.1 293.8)">is prompted for an </text><text class="cls-6" transform="translate(302.1 305.8)">access code. </text><rect class="cls-8" x="90.74" y="191.77" width="36.99" height="116.08"/><text class="cls-9" transform="translate(110.93 301.09) rotate(-90)"><tspan xml:space="preserve">New Student  </tspan></text><rect class="cls-8" x="90.74" y="650.32" width="36.99" height="132.28"/><text class="cls-9" transform="translate(110.93 775.85) rotate(-90)"><tspan xml:space="preserve">Returning Student  </tspan></text><path class="cls-7" d="M867.95,682.59h0a20.34,20.34,0,0,1,20.34-20.34h81.34A20.34,20.34,0,0,1,990,682.59v87.83a20.34,20.34,0,0,1-20.34,20.33H888.28a20.34,20.34,0,0,1-20.34-20.33Z"/><text class="cls-6" transform="translate(880.65 694.11)">Thirty minutes into </text><text class="cls-6" transform="translate(880.65 706.11)">class, Daryl is very </text><text class="cls-6" transform="translate(880.65 718.11)">confused. He was no </text><text class="cls-6" transform="translate(880.65 730.11)">idea what is going </text><text class="cls-6" transform="translate(880.65 742.11)">on. He presses the </text><text class="cls-6" transform="translate(880.65 754.11)">question mark icon </text><text class="cls-6" transform="translate(880.65 766.11)">on his phone. </text><path class="cls-7" d="M1018.54,683.92h0a20.34,20.34,0,0,1,20.34-20.34h81.34a20.33,20.33,0,0,1,20.33,20.34v87.83a20.33,20.33,0,0,1-20.33,20.34h-81.34a20.34,20.34,0,0,1-20.34-20.34Z"/><text class="cls-6" transform="translate(1031.25 701.44)">At the end of the </text><text class="cls-6" transform="translate(1031.25 713.44)">lecture, Daryl is </text><text class="cls-6" transform="translate(1031.25 725.44)">prompted for a rating </text><text class="cls-6" transform="translate(1031.25 737.44)">of one to five stars. </text><text class="cls-6" transform="translate(1031.25 749.44)">He selects 3 stars </text><text class="cls-6" transform="translate(1031.25 761.44)">and closes the app. </text><rect class="cls-8" x="90.71" y="509.65" width="36.99" height="111.09"/><text class="cls-9" transform="translate(110.9 614) rotate(-90)"><tspan xml:space="preserve">New Professor   </tspan></text><path class="cls-7" d="M143.57,522h0a20.34,20.34,0,0,1,20.34-20.34h81.34A20.34,20.34,0,0,1,265.58,522v87.83a20.34,20.34,0,0,1-20.34,20.34H163.9a20.34,20.34,0,0,1-20.34-20.34Z"/><text class="cls-6" transform="translate(156.27 527.49)">Professor Snape is </text><text class="cls-6" transform="translate(156.27 539.49)">having a hard time </text><text class="cls-6" transform="translate(156.27 551.49)">gauging how his </text><text class="cls-6" transform="translate(156.27 563.49)">students are doing. </text><text class="cls-6" transform="translate(156.27 575.49)">He logs onto </text><text class="cls-6" transform="translate(156.27 587.49)">WaitWhat.com, to </text><text class="cls-6" transform="translate(156.27 599.49)">register his chemistry </text><text class="cls-6" transform="translate(156.27 611.49)">class. </text><path class="cls-7" d="M293.45,522h0a20.34,20.34,0,0,1,20.34-20.34h81.34A20.34,20.34,0,0,1,415.45,522v87.83a20.34,20.34,0,0,1-20.34,20.34H313.78a20.34,20.34,0,0,1-20.34-20.34Z"/><text class="cls-6" transform="translate(306.15 515.49)">He clicks on “create </text><text class="cls-6" transform="translate(306.15 527.49)">an account” and </text><text class="cls-6" transform="translate(306.15 539.49)">provides an email </text><text class="cls-6" transform="translate(306.15 551.49)">password. In his </text><text class="cls-6" transform="translate(306.15 563.49)">dashboard, he </text><text class="cls-6" transform="translate(306.15 575.49)">selects “add a class” </text><text class="cls-6" transform="translate(306.15 587.49)">and inputs the class </text><text class="cls-6" transform="translate(306.15 599.49)">name. After “submit”, </text><text class="cls-6" transform="translate(306.15 611.49)">he is prompted an </text><text class="cls-6" transform="translate(306.15 623.49)">access code </text><path class="cls-7" d="M581.06,522h0a20.34,20.34,0,0,1,20.34-20.34h81.34A20.34,20.34,0,0,1,703.06,522v87.83a20.34,20.34,0,0,1-20.34,20.34H601.39a20.34,20.34,0,0,1-20.34-20.34Z"/><text class="cls-6" transform="translate(593.76 521.49)">Professor Snape </text><text class="cls-6" transform="translate(593.76 533.49)">writes this access </text><text class="cls-6" transform="translate(593.76 545.49)">code on the board. </text><text class="cls-6" transform="translate(593.76 557.49)">He then returns to his </text><text class="cls-6" transform="translate(593.76 569.49)">laptop and clicks on </text><text class="cls-6" transform="translate(593.76 581.49)">“start new lecture.” A </text><text class="cls-6" transform="translate(593.76 593.49)">green progress bar </text><text class="cls-6" transform="translate(593.76 605.49)">appears on his </text><text class="cls-6" transform="translate(593.76 617.49)">screen </text><path class="cls-7" d="M867.95,524h0a20.34,20.34,0,0,1,20.34-20.34h81.34A20.33,20.33,0,0,1,990,524v87.83a20.34,20.34,0,0,1-20.34,20.34H888.28a20.34,20.34,0,0,1-20.34-20.34Z"/><text class="cls-6" transform="translate(880.65 535.53)">Thirty minutes into </text><text class="cls-6" transform="translate(880.65 547.53)">class, Professor </text><text class="cls-6" transform="translate(880.65 559.53)">Snape is alerted with </text><text class="cls-6" transform="translate(880.65 571.53)">a beep. The progress </text><text class="cls-6" transform="translate(880.65 583.53)">bar is now </text><text class="cls-6" transform="translate(880.65 595.53)">predominately blue </text><text class="cls-6" transform="translate(880.65 607.53)">instead of green. </text><path class="cls-7" d="M1018.54,524.58h0a20.34,20.34,0,0,1,20.34-20.34h81.34a20.33,20.33,0,0,1,20.33,20.34v87.83a20.34,20.34,0,0,1-20.33,20.34h-81.34a20.34,20.34,0,0,1-20.34-20.34Z"/><text class="cls-6" transform="translate(1031.25 518.09)">Because WaitWhat </text><text class="cls-6" transform="translate(1031.25 530.09)">has alerted him half </text><text class="cls-6" transform="translate(1031.25 542.09)">the class is confused, </text><text class="cls-6" transform="translate(1031.25 554.09)">he asks the class if </text><text class="cls-6" transform="translate(1031.25 566.09)">anyone has </text><text class="cls-6" transform="translate(1031.25 578.09)">questions. He calls </text><text class="cls-6" transform="translate(1031.25 590.09)">on Daryl and </text><text class="cls-6" transform="translate(1031.25 602.09)">answers his question. </text><text class="cls-6" transform="translate(1031.25 614.09)">He clicks on end </text><text class="cls-6" transform="translate(1031.25 626.09)">lecture. </text><rect class="cls-8" x="90.74" y="323.28" width="36.99" height="155.67"/><text class="cls-9" transform="translate(110.93 472.2) rotate(-90)"><tspan xml:space="preserve">Returning Professor   </tspan></text><path class="cls-5" d="M143.57,370h0a20.34,20.34,0,0,1,20.34-20.34h81.34A20.33,20.33,0,0,1,265.58,370v87.83a20.34,20.34,0,0,1-20.34,20.34H163.9a20.34,20.34,0,0,1-20.34-20.34Z"/><text class="cls-6" transform="translate(156.27 375.47)">Professor Trelawney </text><text class="cls-6" transform="translate(156.27 387.47)">walk into class and </text><text class="cls-6" transform="translate(156.27 399.47)">sets up her </text><text class="cls-6" transform="translate(156.27 411.47)">powerpoint slides. </text><text class="cls-6" transform="translate(156.27 423.47)">She also logs into </text><text class="cls-6" transform="translate(156.27 435.47)">WaitWhat.com and </text><text class="cls-6" transform="translate(156.27 447.47)">enters her </text><text class="cls-6" transform="translate(156.27 459.47)">credentials. </text><path class="cls-5" d="M435.23,216.28h0a20.34,20.34,0,0,1,20.34-20.34H536.9a20.33,20.33,0,0,1,20.34,20.34v87.83a20.34,20.34,0,0,1-20.34,20.34H455.56a20.34,20.34,0,0,1-20.34-20.34Z"/><text class="cls-6" transform="translate(447.93 215.8)">Because she joined </text><text class="cls-6" transform="translate(447.93 227.8)">the class a week late, </text><text class="cls-6" transform="translate(447.93 239.8)">she asks the student </text><text class="cls-6" transform="translate(447.93 251.8)">next to her what it is. </text><text class="cls-6" transform="translate(447.93 263.8)">She enters the code. </text><text class="cls-6" transform="translate(447.93 275.8)">“You have now been </text><text class="cls-6" transform="translate(447.93 287.8)">added to PSYCH </text><text class="cls-6" transform="translate(447.93 299.8)">101” message </text><text class="cls-6" transform="translate(447.93 311.8)">appears</text><path class="cls-5" d="M581.06,370h0a20.34,20.34,0,0,1,20.34-20.34h81.34A20.34,20.34,0,0,1,703.06,370v87.83a20.34,20.34,0,0,1-20.34,20.34H601.39a20.34,20.34,0,0,1-20.34-20.34Z"/><text class="cls-6" transform="translate(593.76 387.47)">Under “My Classes” </text><text class="cls-6" transform="translate(593.76 399.47)">in her dashboard, </text><text class="cls-6" transform="translate(593.76 411.47)">she selects </text><text class="cls-6" transform="translate(593.76 423.47)">“PSYCH101.” She </text><text class="cls-6" transform="translate(593.76 435.47)">then selects “start </text><text class="cls-6" transform="translate(593.76 447.47)">new lecture.” </text><path class="cls-5" d="M1018.54,370h0a20.34,20.34,0,0,1,20.34-20.34h81.34A20.33,20.33,0,0,1,1140.55,370v87.83a20.33,20.33,0,0,1-20.33,20.34h-81.34a20.34,20.34,0,0,1-20.34-20.34Z"/><text class="cls-6" transform="translate(1031.25 369.47)">Professor ends the </text><text class="cls-6" transform="translate(1031.25 381.47)">lecture. Looking at </text><text class="cls-6" transform="translate(1031.25 393.47)">the analytics of this </text><text class="cls-6" transform="translate(1031.25 405.47)">class and past </text><text class="cls-6" transform="translate(1031.25 417.47)">classes, she notices </text><text class="cls-6" transform="translate(1031.25 429.47)">the first thirty minutes </text><text class="cls-6" transform="translate(1031.25 441.47)">have a high </text><text class="cls-6" transform="translate(1031.25 453.47)">percentage of ‘not </text><text class="cls-6" transform="translate(1031.25 465.47)">engaged.’ </text><path class="cls-5" d="M1169.5,370h0a20.34,20.34,0,0,1,20.33-20.34h81.34A20.33,20.33,0,0,1,1291.51,370v87.83a20.33,20.33,0,0,1-20.33,20.34h-81.34a20.34,20.34,0,0,1-20.33-20.34Z"/><text class="cls-6" transform="translate(1182.2 363.47)">Given that it is an 8 </text><text class="cls-6" transform="translate(1182.2 375.47)">am class, she </text><text class="cls-6" transform="translate(1182.2 387.47)">assumes that her </text><text class="cls-6" transform="translate(1182.2 399.47)">students are not </text><text class="cls-6" transform="translate(1182.2 411.47)">awake yet. She </text><text class="cls-6" transform="translate(1182.2 423.47)">decides she will open </text><text class="cls-6" transform="translate(1182.2 435.47)">with an activity next </text><text class="cls-6" transform="translate(1182.2 447.47)">class instead of </text><text class="cls-6" transform="translate(1182.2 459.47)">powerpoint slides. </text><text class="cls-6" transform="translate(1182.2 471.47)">Maybe this will help. </text><line class="cls-8" x1="55.37" y1="172.61" x2="1268.79" y2="170.49"/><line class="cls-10" x1="55.37" y1="172.61" x2="1250.79" y2="170.52"/><polygon class="cls-11" points="1250.8 175.47 1264.41 170.49 1250.78 165.56 1250.8 175.47"/><polygon class="cls-12" points="1250.8 175.47 1264.41 170.49 1250.78 165.56 1250.8 175.47"/><rect class="cls-8" x="610.39" y="99.92" width="172.51" height="23.08"/><text class="cls-13" transform="translate(617.14 120.11)">Time Elapsed</text><rect class="cls-8" x="10.99" y="10.99" width="194.83" height="77.22"/><line class="cls-8" x1="71.45" y1="118.1" x2="70.72" y2="757.46"/><line class="cls-10" x1="71.45" y1="118.1" x2="70.72" y2="757.46"/><rect class="cls-8" x="205.83" y="17.9" width="981.64" height="45.8"/><text class="cls-14" transform="translate(486.62 53.45)">User Journeys For WaitWhat: </text><text class="cls-15" transform="translate(224.39 83.69)">An App to Measure Student Engagement and Feedback for Large University Classrooms</text><line class="cls-8" x1="201.7" y1="171.37" x2="201.7" y2="157.72"/><line class="cls-16" x1="201.7" y1="171.37" x2="201.7" y2="157.72"/><line class="cls-8" x1="646.05" y1="171.37" x2="646.05" y2="159.23"/><line class="cls-16" x1="646.05" y1="171.37" x2="646.05" y2="159.23"/><line class="cls-8" x1="1082.82" y1="171.37" x2="1082.82" y2="160.76"/><line class="cls-16" x1="1082.82" y1="171.37" x2="1082.82" y2="160.76"/><line class="cls-8" x1="784.06" y1="169.85" x2="784.06" y2="162.27"/><line class="cls-16" x1="784.06" y1="169.85" x2="784.06" y2="162.27"/><line class="cls-8" x1="934.2" y1="171.37" x2="934.2" y2="160.76"/><line class="cls-16" x1="934.2" y1="171.37" x2="934.2" y2="160.76"/><rect class="cls-8" x="28.35" y="204.74" width="23.08" height="544.44"/><text class="cls-13" transform="translate(48.54 742.43) rotate(-90)"><tspan xml:space="preserve">Possible WaitWhat  [Users [Old and Returning] [Professors and Students] </tspan></text><rect class="cls-8" x="151.65" y="132.56" width="103.3" height="23.08"/><text class="cls-9" transform="translate(158.4 152.75)">Before Class</text><rect class="cls-8" x="602.41" y="132.56" width="103.3" height="23.08"/><text class="cls-9" transform="translate(609.16 152.75)">Class Starts</text><rect class="cls-8" x="742.24" y="132.56" width="103.3" height="23.08"/><text class="cls-9" transform="translate(748.99 152.75)">15 minutes</text><rect class="cls-8" x="888.55" y="132.56" width="103.3" height="23.08"/><text class="cls-9" transform="translate(895.3 152.75)">30 minutes</text><rect class="cls-8" x="1034.86" y="132.56" width="103.3" height="23.08"/><text class="cls-9" transform="translate(1041.61 152.75)">Class Ends</text><rect class="cls-4" x="1176.33" y="603.63" width="122.01" height="145.56"/><rect class="cls-16" x="1176.33" y="603.63" width="122.01" height="145.56"/><text class="cls-9" transform="translate(1213.99 623.85)">Legend</text><text class="cls-9" transform="translate(1224.73 656.85)">Classroom </text><text class="cls-9" transform="translate(1223.15 673.35)">Scenario A</text><text class="cls-9" transform="translate(1224.73 706.35)">Classroom </text><text class="cls-9" transform="translate(1223.15 722.85)">Scenario B</text><path class="cls-5" d="M1188.25,662.14h0a11.54,11.54,0,1,1,11.54,11.54A11.54,11.54,0,0,1,1188.25,662.14Z"/><path class="cls-16" d="M1188.25,662.14h0a11.54,11.54,0,1,1,11.54,11.54A11.54,11.54,0,0,1,1188.25,662.14Z"/><path class="cls-7" d="M1188.25,709.15h0a11.54,11.54,0,1,1,11.54,11.54A11.54,11.54,0,0,1,1188.25,709.15Z"/><path class="cls-16" d="M1188.25,709.15h0a11.54,11.54,0,1,1,11.54,11.54A11.54,11.54,0,0,1,1188.25,709.15Z"/></g></g></g></g></svg>