<?xml version="1.0" encoding="UTF-8"?>
<svg width="1076px" height="566px" viewBox="0 0 1076 566" version="1.1" xmlns="http://www.w3.org/2000/svg" xmlns:xlink="http://www.w3.org/1999/xlink">
    <!-- Generator: Sketch 54.1 (76490) - https://sketchapp.com -->
    <title>Map</title>
    <desc>Created with Sketch.</desc>
    <g id="Page-1" stroke="none" stroke-width="1" fill="none" fill-rule="evenodd">
        <g id="Abstract-World-Map" transform="translate(-81.000000, -151.000000)">
            <g id="Map" transform="translate(81.000000, 151.000000)">
                <path d="M547.581081,241.758388 C538.467075,237.17733 534.661323,225.719862 520.820834,228.502572 C511.426673,230.391322 490.080345,230.944318 483.201356,237.859619 C472.975456,248.1395 448.394546,290.398259 453.726302,306.477962 C455.898229,313.028139 460.647274,320.392976 463.422043,325.97181 C466.935915,333.036652 490.389945,347.475417 499.878032,344.296027 C506.057745,342.225248 516.908291,335.311643 523.923471,338.837749 C527.754836,340.763544 529.392889,346.285424 532.067894,348.97455 C538.627728,355.569012 534.537906,371.485113 538.660999,379.774829 C539.595261,381.653217 542.045024,388.956006 540.987977,391.081261 C537.639311,397.813947 532.963959,404.552402 534.782702,413.694124 C536.815415,423.911342 545.412574,432.194434 547.193251,442.934895 C548.191008,448.953036 551.230706,471.865789 556.501163,474.514928 C583.231962,487.950881 605.937347,452.888919 619.717399,439.036126 C624.364425,434.364569 617.127649,418.900966 620.105229,412.91437 C623.962497,405.159109 631.903114,399.556863 634.454926,391.861015 C635.132317,389.818115 627.334859,381.444479 625.922674,378.605198 C622.120342,370.960392 645.453722,348.97455 647.641135,348.97455 C654.016441,348.584673 663.221861,316.292782 660.439514,313.495747 C654.648801,307.674467 637.365125,317.201063 630.57663,310.376732 C616.507581,296.233416 610.222421,257.55529 598.774597,246.047035 C596.534151,243.794762 578.36092,243.268329 574.729158,242.538142 C567.560766,242.538142 553.94678,244.95804 547.581081,241.758388 Z" id="Path" fill="#34A853"></path>
                <path d="M655.805141,397.701471 C639.447994,403.356437 636.605632,437.644015 647.506805,448.950223 C648.690298,450.177688 652.685084,434.29675 653.541958,432.519326 C658.253579,422.745963 666.29664,405.862455 655.805141,397.701471 L655.805141,397.701471 Z" id="Path" fill="#34A853"></path>
                <path d="M541.020148,29.6600556 C540.366905,32.281167 537.562847,41.9070704 538.725319,44.2392573 C540.308671,47.4158288 547.96848,44.0794473 550.581937,45.3902469 C566.946877,53.5982105 592.804218,28.509066 568.175629,28.509066 L557.083953,28.509066 C551.520306,28.509066 546.678229,28.8492399 541.020148,29.6600556 L541.020148,29.6600556 Z" id="Path" fill="#4A90E2"></path>
                <path d="M691.745312,54.184615 C687.871824,56.7987415 684.076796,59.1597579 681.123142,62.149786 C679.045708,64.2528033 667.804358,75.3503068 669.714144,77.2836109 C675.487038,83.1275976 698.230308,64.346616 702.760896,59.7602347 C705.579109,56.9073162 712.375491,57.5941502 714.956721,54.9811321 C715.12036,54.8154786 715.12036,51.1642001 714.956721,50.9985466 C711.47173,47.4706376 693.765676,53.4311039 691.745312,54.184615 L691.745312,54.184615 Z" id="Path" fill="#4285F4"></path>
                <path d="M444.115984,104.058091 L456.323174,104.058091 C478.747827,104.058091 464.855408,115.782713 458.993496,121.862505 C456.656488,124.286377 425.886072,120.591666 434.579117,111.57551 C437.068016,108.994102 439.659963,107.32043 444.115984,104.058091 L444.115984,104.058091 Z" id="Path" fill="#4A90E2"></path>
                <path d="M496.903611,133.303045 C482.638795,128.673301 494.950957,147.154535 494.950957,153.456218 C494.950957,156.113629 489.777125,164.769298 491.826709,166.764917 C492.210046,167.138162 514.793801,159.467914 509.010072,153.836467 C504.356711,149.305627 499.815792,140.03737 496.903611,133.303045 L496.903611,133.303045 Z" id="Path" fill="#4A90E2"></path>
                <path d="M482.339701,156.715997 C479.861283,148.426595 474.822725,160.93564 475.925496,165.853459 C477.342037,172.170542 484.986471,171.470126 482.339701,156.715997 L482.339701,156.715997 Z" id="Path" fill="#4A90E2"></path>
                <path d="M495.97344,178.154747 C494.820052,182.763895 497.968594,196.350175 495.19621,199.119909 C487.204428,207.104057 479.878917,190.05843 474.988229,209.602491 C470.2057,228.714332 493.343036,230.866082 503.745741,220.473316 C510.996735,213.229249 500.251385,203.001288 517.735882,197.178691 C527.543711,193.912538 533.368352,203.161024 541.052783,205.720053 C549.302728,208.467407 553.117481,201.843488 558.929074,203.778834 C568.855998,207.084648 577.899183,216.044492 588.463816,210.767222 C593.462818,208.270109 589.09791,196.967528 594.293041,195.237472 C598.462039,193.849134 611.830025,195.527194 613.723792,191.743278 C618.525049,182.149939 591.564523,178.93944 597.013346,173.495822 C604.605475,165.910946 618.801547,158.69109 624.216398,147.871735 C628.790323,138.732623 626.345291,127.716986 628.879778,117.588722 C629.732442,114.181326 632.152707,104.71614 630.434238,101.282485 C627.523976,95.4675216 610.035677,91.6258528 603.619802,90.0234163 C583.405136,84.9745782 570.182664,77.4136095 548.825083,88.0821976 C544.209674,90.3876978 540.258008,107.905999 536.778018,112.541554 C529.364404,122.416928 516.474761,121.669035 524.342337,137.389154 C525.135448,138.973859 523.911714,142.782599 525.119567,143.989297 C528.483406,147.349923 536.227681,139.945293 537.166633,140.883347 C541.02869,144.741714 531.851571,148.259979 543.384473,148.259979 C546.749711,148.259979 553.197841,149.326811 555.042924,147.483491 C556.31109,146.216536 556.68221,139.160881 557.763229,137.00091 C558.490918,135.546922 564.364935,133.497226 562.815224,130.400766 C560.712967,126.200268 557.529204,123.182853 558.929074,117.588722 C559.624029,114.811557 570.25638,103.669363 574.473675,107.882629 C579.461992,112.86618 565.799852,119.157419 567.86722,125.353597 C569.753564,131.007225 582.441372,128.259986 580.691515,137.00091 C577.010605,155.38788 542.289841,154.630428 530.948792,160.295535 C528.954834,161.291562 521.424881,159.716009 520.456187,160.683778 C518.306321,162.831591 520.41749,169.302461 518.901727,172.331091 C518.618759,172.896486 499.898601,177.958677 495.97344,178.154747 L495.97344,178.154747 Z" id="Path" fill="#4A90E2"></path>
                <path d="M627.288675,159.264617 C623.877521,166.110985 610.153764,166.591056 607.176103,172.567381 C606.085384,174.756513 614.333473,178.832561 615.403973,179.906837 C620.325084,184.845303 633.653983,201.569287 630.031298,212.475673 C628.163057,218.100162 582.637939,212.308876 588.891947,224.861004 C593.754608,234.620626 610.321866,226.182998 615.861077,231.741744 C619.913802,235.808762 610.893495,255.197035 615.403973,259.72342 C632.190967,276.569618 624.428582,314.150714 657.914636,307.429883 C671.587581,304.68565 676.24452,299.127106 684.883766,290.457392 C690.935101,284.384716 686.298586,261.878648 704.539234,267.980308 C731.791414,277.096405 727.855508,290.46537 738.822027,312.475759 C741.396179,317.64222 740.511684,326.302642 744.210684,329.875839 C747.909683,333.449037 754.764232,304.79085 757.106183,300.090427 C762.986166,288.288988 773.573012,284.482956 782.704002,275.319764 C783.335859,274.685678 785.088955,275.878264 785.446625,276.237196 C793.003763,283.820986 791.108226,297.515107 798.245535,304.677587 C806.703702,313.165584 820.820295,313.111767 828.871496,321.191363 C831.927656,321.650079 834.664133,326.541718 838.013574,324.861091 C838.198105,324.7685 838.013574,321.669874 838.013574,321.650079 C838.013574,312.556325 830.196763,298.347978 834.356743,289.998676 C836.819777,285.055234 844.44927,285.234365 848.984068,282.200504 C861.774679,273.643357 872.23016,263.459588 881.895549,253.760112 C888.540823,247.091402 880.792674,226.047819 875.953198,221.191276 C875.785019,221.022503 874.298941,218.264208 875.038991,217.521548 C882.342837,210.191943 896.642024,229.78731 899.722601,226.695868 C903.023918,223.382909 897.363065,215.889108 902.465225,212.475673 C910.269073,207.254759 921.551271,206.166363 928.063044,199.631625 C931.795755,195.885749 933.028185,186.131115 938.119329,183.576565 C940.927579,182.167488 947.093029,181.451958 949.546927,178.989405 C956.751292,171.759632 938.790432,163.822568 936.290914,158.805901 C931.575415,149.341643 942.37503,143.114714 949.089823,138.622397 C958.540744,132.299563 967.92469,137.566802 978.344473,134.952669 C982.066979,134.018761 1005.34533,125.41515 1006.22781,128.07193 C1008.41879,134.668052 996.912208,136.574099 992.971798,139.539829 C983.75391,146.477628 982.348044,160.530012 990.686278,168.897653 C993.167699,171.387825 1007.4983,148.424066 1008.97043,145.961853 C1011.16413,142.292798 1014.91279,137.973771 1014.91279,134.035238 C1014.91279,133.259015 1015.02282,132.603879 1015.82699,132.200374 C1024.2066,127.995794 1071.78283,106.781163 1074.7934,103.759982 C1077.96894,100.57324 1069.04009,90.2675082 1066.56553,92.750798 C1061.42618,97.9082717 1035.80717,95.7103081 1029.08301,94.585662 C1000.19032,89.7532312 972.385363,81.554764 943.604576,75.7783062 C917.683393,70.5757861 892.474256,66.1452704 865.896913,66.1452704 C863.226253,66.1452704 840.967053,68.4033327 839.84199,66.1452704 C837.855994,62.1592694 852.169737,59.6809234 849.898276,52.8425065 C848.20507,47.744975 824.838695,42.7236146 819.272314,44.5856186 C794.196374,52.9737443 768.940021,68.8975663 741.107547,68.8975663 C733.478521,68.8975663 720.963684,64.555465 715.052624,67.5214183 C705.665811,72.2313772 700.483625,79.581429 688.540598,83.5764781 C668.944122,90.1316739 651.801268,85.1242469 637.802064,99.1728219 C643.317112,121.310812 635.382789,143.019297 627.288675,159.264617 Z" id="Path" fill="#4285F4"></path>
                <path d="M808.868253,24.7759586 C804.932454,23.5184478 800.141749,11.8661052 794.237021,14.695998 C790.693839,16.3940992 799.697053,35.3973498 802.924315,36.1706966 C816.168008,39.3442747 821.887607,33.6897294 808.868253,24.7759586 L808.868253,24.7759586 Z" id="Path" fill="#4285F4"></path>
                <path d="M952.964447,198.138009 C941.944308,201.846672 938.810866,215.32938 934.46632,224.101934 C930.299629,232.515361 919.885117,235.106623 912.809977,238.678172 C910.37029,239.909733 912.267785,246.375853 914.163499,247.332814 C920.604269,250.584132 925.222556,241.522419 929.954582,239.13368 C951.305914,228.355471 948.958908,221.054079 952.964447,198.138009 L952.964447,198.138009 Z" id="Path" fill="#4285F4"></path>
                <path d="M818.103368,329.711992 C809.617381,317.031473 808.43628,344.852399 809.355973,349.433357 C811.407386,359.651371 818.6168,380.289865 830.994265,383.37245 C834.913481,384.348524 841.360906,384.408309 844.805941,386.124269 C847.037366,387.235734 857.574556,393.584268 859.538395,391.627905 C865.655559,385.534031 836.284195,373.965876 833.7566,371.447904 C818.816637,356.56482 842.763056,346.600982 818.103368,329.711992 L818.103368,329.711992 Z" id="Path" fill="#4285F4"></path>
                <path d="M869.608228,332.130619 C862.3113,332.130619 859.083906,341.424468 856.19515,347.085162 C854.574608,350.260711 849.002862,352.319352 846.94475,354.335849 C843.171941,358.032374 853.604689,369.154271 855.73263,370.196728 C858.967036,371.781232 862.480603,368.384056 865.445549,368.384056 C867.817224,368.384056 878.51167,370.083503 879.783668,368.837224 C882.605645,366.072306 873.308388,352.686119 873.308388,348.897834 C873.308388,340.447422 874.568954,341.243909 869.608228,332.130619 L869.608228,332.130619 Z" id="Path" fill="#4285F4"></path>
                <path d="M941.601662,367.258133 C938.432671,364.895915 914.494064,356.858768 921.469606,367.258133 C926.065033,374.109146 946.880428,380.56802 953.955424,384.083898 C955.78864,384.994904 965.730866,395.117944 967.681827,393.178906 C973.976233,386.922969 947.196234,368.566458 941.601662,367.258133 L941.601662,367.258133 Z" id="Path" fill="#34A853"></path>
                <path d="M904.283436,401.996101 C895.887014,423.1051 865.503056,418.288933 856.559799,436.275945 C854.464337,440.490417 854.741756,447.40676 854.741756,452.273206 C854.741756,456.613457 854.314066,461.038349 855.650777,465.071014 C867.845982,501.862191 895.539518,455.902517 915.646207,460.957433 C930.215819,464.620301 948.362378,497.755461 966.09691,488.838372 C974.828104,484.448246 972.18066,472.136739 974.278104,463.69982 C975.462256,458.9366 984.964523,449.084641 982.459299,444.046043 C978.347061,435.775355 964.654724,433.375369 960.188269,424.392266 C953.864059,411.67278 951.51889,399.693847 937.917238,392.85481 C930.059599,388.903916 911.702822,399.801668 904.283436,401.996101 L904.283436,401.996101 Z" id="Path" fill="#34A853"></path>
                <path d="M961.511213,500.334108 C942.639972,500.334108 955.20539,525.992268 961.511213,500.334108 L961.511213,500.334108 Z" id="Path" fill="#34A853"></path>
                <path d="M1056.9501,495.655719 C1053.17095,494.41841 1050.8183,483.962113 1045.72164,486.465114 C1043.05126,487.77655 1010.33343,537.958162 1027.94323,531.039546 C1036.86551,527.53412 1036.85388,515.554652 1044.78593,510.360686 C1050.25077,506.782267 1053.27117,501.437305 1056.9501,495.655719 L1056.9501,495.655719 Z" id="Path" fill="#34A853"></path>
                <path d="M1062.34074,451.911562 C1057.67764,451.911562 1050.83132,450.973999 1053.13886,457.868387 C1053.6763,459.474125 1064.3119,471.942879 1066.02149,470.240256 C1069.20961,467.065144 1062.94887,453.122863 1062.34074,451.911562 L1062.34074,451.911562 Z" id="Path" fill="#34A853"></path>
                <path d="M295.948914,313.607191 C290.68543,313.607191 279.560243,313.232921 277.302839,317.784618 C275.69801,321.0205 277.206497,333.198979 275.231053,335.190563 C267.956698,342.524352 262.569142,354.688233 259.347359,364.432551 C258.059769,368.326882 270.185462,408.77862 272.468671,411.080484 C276.115057,414.756662 283.156762,416.285999 286.971174,420.131576 C292.053678,425.255605 289.958653,450.781468 287.661769,457.728417 C284.724746,466.611477 288.943135,479.513071 284.899388,487.666643 C273.218799,511.218691 274.078634,554.272674 296.639509,565.645277 C302.920337,568.81135 299.40189,542.049861 299.40189,538.492003 C299.40189,522.577022 306.521114,510.427479 315.976179,500.895161 C324.072848,492.732339 343.587898,488.38727 349.124757,477.223076 C353.104211,469.19914 360.14646,445.920424 365.00845,441.01871 C371.330245,434.645263 380.536403,433.718741 385.726311,428.486429 C389.438616,424.743793 383.64239,411.788956 387.107502,408.295533 C391.859522,403.504687 406.308119,391.311496 400.228814,379.053545 C394.05094,366.596846 380.88824,375.568421 371.914404,366.521264 C356.340734,350.820352 340.556478,328.782707 321.500942,319.177093 C314.002044,315.39701 304.683964,317.610109 295.948914,313.607191 L295.948914,313.607191 Z" id="Path" fill="#FBBC05"></path>
                <path d="M333.713467,4.0934892 C333.713467,22.042402 293.380374,36.9163795 299.836795,49.8710273 C303.65738,57.5369373 318.142643,47.4281725 323.343057,52.6454236 C332.268549,61.5998131 331.958234,78.62847 339.244352,85.9381786 C342.41733,89.1214294 350.847112,84.2492651 353.762926,90.099773 C360.528218,103.674164 342.253235,112.539171 367.590139,137.958108 C369.986529,140.362257 375.283503,128.070357 375.886467,126.860523 C379.259574,120.092467 387.668065,109.159468 393.861844,106.052551 C406.070322,99.9285489 429.241066,92.753953 437.417566,84.5509805 C447.217089,74.7197295 439.49693,49.8604283 445.022533,38.7734423 C447.793099,33.2143697 466.636348,21.1043123 462.30655,12.4166779 C458.140531,4.05766416 437.547778,9.84833985 428.429877,7.56148451 C400.501789,0.556856849 361.519042,-3.51440185 333.713467,4.0934892 L333.713467,4.0934892 Z" id="Path" fill="#F6F6F6"></path>
                <path d="M205.817074,13.1799997 C221.915662,8.79806151 248.017921,18.0557795 261.946309,11.1052045 C265.412779,9.37535892 275.671552,6.26401564 279.270147,6.26401564 C284.826617,6.26401564 297.55165,-0.387774934 302.830567,4.88081883 C304.583237,6.63006175 300.283798,9.96439509 300.058753,10.4136061 C294.568053,21.3735309 284.750898,32.6702641 279.270147,43.6103294 C276.807535,48.525922 266.10403,47.2000372 266.10403,51.2179118 C266.10403,52.6127337 266.228687,54.2331322 266.796984,55.3675023 C274.947474,71.6366056 296.472235,78.7603362 309.067148,91.3306192 C309.972083,92.2337847 308.734142,96.1449192 308.374195,96.8634064 C301.283526,111.017011 306.615267,129.315546 311.838962,139.742507 C315.681917,147.413386 329.734926,152.070687 336.092336,158.415664 C339.443434,161.760209 334.850456,171.008181 338.171196,174.322428 C339.561862,175.710374 347.942395,181.098986 345.793685,185.388002 C345.137968,186.69687 343.757332,186.771199 342.328917,186.771199 C325.394875,186.771199 331.992961,181.354877 327.08394,171.556034 C325.72892,168.851294 306.983689,172.252222 305.602381,173.630829 C299.308181,179.91272 322.583438,183.997427 318.075544,192.995584 C313.574976,201.979117 297.703265,187.323371 291.74331,199.21997 C285.882164,210.919339 280.414576,227.124912 270.954705,236.566284 C268.657408,238.859088 263.094954,236.111483 260.560402,238.641079 C255.272463,243.918677 266.650352,261.610171 261.253355,266.996614 C259.775626,268.471453 257.508137,264.641916 257.095634,264.23022 C249.952041,257.100597 252.103564,253.785684 241.157703,248.323457 C239.732814,247.612405 232.022707,253.667829 229.377494,254.547842 C216.082064,258.970985 206.510027,254.477115 206.510027,270.454606 C206.510027,276.529543 207.817728,288.397137 213.439563,291.202558 C223.150195,296.048379 223.111637,275.747121 234.228168,279.445385 C244.002917,282.697263 236.263554,295.265368 239.771796,302.268132 C243.473807,309.657675 249.55872,300.970342 254.32382,305.726124 C257.769416,309.164982 249.175653,314.419993 252.937913,318.174895 C256.077119,321.307963 275.750306,325.837443 272.340612,329.24047 C265.285583,336.281702 243.131283,315.701763 241.157703,314.716903 C236.98401,312.634138 191.661052,294.364179 191.26505,293.968951 C182.48266,285.203736 182.595962,268.718455 172.555305,258.697433 C172.166634,258.309522 166.618553,250.790606 165.62577,251.781449 C163.530013,253.873107 170.945611,266.060116 168.397584,271.146204 C167.910322,272.118821 145.08596,257.810855 142.758304,253.164646 C132.460172,232.60866 128.547004,200.943225 115.733116,188.154396 C111.928491,184.35721 123.287444,178.40399 119.890838,175.014026 C117.221661,172.350069 109.211198,174.729247 106.724721,172.247632 C88.2603234,153.819344 86.931551,138.780583 60.2968348,132.134925 C43.6761186,127.987872 26.9547335,150.767994 22.8773448,148.733287 C17.8548608,146.226956 4.12192153,131.998158 2.08873921,125.910539 C-0.0359955527,119.5488 10.9207169,119.334008 8.32532089,114.153367 C5.80410185,109.120789 -2.43509987,98.2858088 0.702832175,92.0222176 C1.96736801,89.4980917 2.25803295,78.7973666 4.86055329,77.4986512 C30.4986628,64.7046649 65.2968471,92.503655 92.1726967,85.797832 C95.6028123,84.9419801 128.360219,51.0642735 133.749908,45.6851246 C137.163668,42.2780408 154.508936,48.2712386 158.003281,49.1431166 C174.568954,53.2764361 201.622552,63.0118134 214.82547,49.834715 C220.102745,44.5677595 205.817074,19.4775743 205.817074,13.1799997 Z M241.105053,112.610811 C236.167476,114.255729 231.952059,123.131102 229.431893,125.649828 C225.560623,129.518886 214.529862,126.818062 210.892168,130.453677 C210.730322,130.615431 210.892168,130.911186 210.892168,131.139941 C210.892168,138.942197 242.020968,142.349294 248.658274,148.982807 C254.769969,155.091009 255.19551,170.778688 263.764716,175.060843 C268.708994,177.531569 265.348339,162.28771 266.511342,159.963033 C268.444414,156.0991 276.155336,143.58505 274.75122,139.37511 C273.741842,136.348707 274.674915,138.650716 273.377907,138.002582 C259.547974,131.091567 253.313503,122.100846 241.105053,112.610811 Z" id="Path" fill="#EA4335"></path>
                <path d="M253.554068,277.70728 C264.510097,280.433675 262.136021,286.249717 268.191085,292.276901 C268.855388,292.938145 290.95361,295.28947 291.192111,295.052067 C295.67466,290.590157 280.422218,284.712123 279.343098,282.56382 C278.030465,279.950642 279.386489,264.893733 277.252095,263.83145 C274.381228,262.402626 273.395072,273.914837 272.37309,274.932114 C270.968947,276.329792 255.540168,277.16811 253.554068,277.70728 L253.554068,277.70728 Z" id="Path" fill="#EA4335"></path>
                <path d="M30.784751,296.494286 C28.3757455,292.66833 14.0204847,276.193761 19.9356822,269.930793 C21.8574,267.896092 23.6847124,272.464375 24.004083,272.802522 C29.4137216,278.530208 36.1760211,289.155123 30.784751,296.494286 L30.784751,296.494286 Z" id="Path" fill="#EA4335"></path>
                <path d="M749.33177,333.888986 C748.902432,335.523024 750.022406,338.13912 751.557224,338.13912 C753.092042,338.13912 754.3329,333.392044 752.917964,332.835322 C751.503027,332.278601 749.761107,332.254947 749.33177,333.888986 Z" id="Path-2" fill="#F8E71C" transform="translate(751.388911, 335.316162) scale(1, -1) translate(-751.388911, -335.316162) "></path>
            </g>
        </g>
    </g>
</svg>